<svg width="100" height="100" viewBox="0 0 100 100" fill="none" xmlns="http://www.w3.org/2000/svg">
<path d="M93.75 26.9584V83.3334C93.75 86.0961 92.6525 88.7456 90.699 90.6991C88.7455 92.6526 86.096 93.75 83.3333 93.75H16.6667C13.904 93.75 11.2545 92.6526 9.30097 90.6991C7.34747 88.7456 6.25 86.0961 6.25 83.3334V26.9584C6.24912 25.3447 6.62733 23.7533 7.35417 22.3125L13.6458 9.70837C14.164 8.66622 14.9635 7.78993 15.9539 7.17873C16.9444 6.56753 18.0862 6.24582 19.25 6.25004H80.75C81.9138 6.24582 83.0556 6.56753 84.0461 7.17873C85.0365 7.78993 85.836 8.66622 86.3542 9.70837L92.6458 22.3125C93.3727 23.7533 93.7509 25.3447 93.75 26.9584Z" fill="#5FCD7B"/>
<path d="M60.4167 56.25C60.9692 56.25 61.4991 56.0305 61.8898 55.6398C62.2805 55.2491 62.5 54.7192 62.5 54.1666V25C62.5 24.4474 62.2805 23.9175 61.8898 23.5268C61.4991 23.1361 60.9692 22.9166 60.4167 22.9166H39.5833C39.0308 22.9166 38.5009 23.1361 38.1102 23.5268C37.7195 23.9175 37.5 24.4474 37.5 25V54.1666C37.5001 54.5354 37.598 54.8975 37.7838 55.216C37.9696 55.5345 38.2366 55.798 38.5576 55.9795C38.8785 56.1611 39.2419 56.2542 39.6106 56.2494C39.9793 56.2446 40.3402 56.1419 40.6562 55.952L50 50.3458L59.3438 55.952C59.6677 56.1469 60.0386 56.2498 60.4167 56.25Z" fill="#FFF2B4"/>
<path d="M93.75 26.9584V27.0834H6.25V26.9584C6.24912 25.3447 6.62733 23.7533 7.35417 22.3125L13.6458 9.70837C14.164 8.66622 14.9635 7.78993 15.9539 7.17873C16.9444 6.56753 18.0862 6.24582 19.25 6.25004H80.75C81.9138 6.24582 83.0556 6.56753 84.0461 7.17873C85.0365 7.78993 85.836 8.66622 86.3542 9.70837L92.6458 22.3125C93.3727 23.7533 93.7509 25.3447 93.75 26.9584Z" fill="#31AD5D"/>
<path d="M77.0834 70.8334H56.2501C55.0995 70.8334 54.1667 71.7661 54.1667 72.9167V81.25C54.1667 82.4006 55.0995 83.3334 56.2501 83.3334H77.0834C78.234 83.3334 79.1667 82.4006 79.1667 81.25V72.9167C79.1667 71.7661 78.234 70.8334 77.0834 70.8334Z" fill="#F9F6F6"/>
<path d="M62.4999 27.0833H37.5208L39.2291 6.25H60.7708L62.4999 27.0833Z" fill="#F2E3A2"/>
<path d="M39.5833 27.0833H8.33333C7.7808 27.0833 7.25089 26.8638 6.86019 26.4731C6.46949 26.0824 6.25 25.5525 6.25 25C6.25 24.4475 6.46949 23.9176 6.86019 23.5269C7.25089 23.1362 7.7808 22.9167 8.33333 22.9167H39.3958C39.9583 22.913 40.5 23.1284 40.9064 23.5173C41.3128 23.9062 41.5518 24.438 41.5729 25C41.5835 25.2686 41.54 25.5365 41.445 25.7879C41.35 26.0393 41.2053 26.269 41.0197 26.4634C40.8341 26.6578 40.6113 26.8128 40.3645 26.9193C40.1177 27.0258 39.8521 27.0816 39.5833 27.0833Z" fill="#232323"/>
<path d="M62.5 27.0833H37.5C37.1835 27.0832 36.8713 27.0111 36.5869 26.8723C36.3025 26.7335 36.0534 26.5317 35.8587 26.2823C35.6639 26.0329 35.5285 25.7424 35.4627 25.4329C35.397 25.1233 35.4026 24.8029 35.4792 24.4958L39.6458 7.82917C39.7583 7.37827 40.0183 6.97791 40.3844 6.69177C40.7506 6.40563 41.2019 6.25013 41.6667 6.25H58.3333C58.798 6.25013 59.2494 6.40563 59.6155 6.69177C59.9817 6.97791 60.2417 7.37827 60.3542 7.82917L64.5208 24.4958C64.5974 24.8029 64.603 25.1233 64.5373 25.4329C64.4715 25.7424 64.3361 26.0329 64.1413 26.2823C63.9466 26.5317 63.6975 26.7335 63.4131 26.8723C63.1287 27.0111 62.8164 27.0832 62.5 27.0833ZM40.1687 22.9167H59.8312L56.7062 10.4167H43.2937L40.1687 22.9167Z" fill="#232323"/>
<path d="M62.5001 58.3333C62.0887 58.3326 61.6865 58.2109 61.3438 57.9833L50.0001 50.4166L38.6563 57.9791C38.3429 58.1883 37.9786 58.3085 37.6022 58.3269C37.2258 58.3454 36.8515 58.2615 36.5191 58.084C36.1866 57.9066 35.9086 57.6423 35.7144 57.3193C35.5203 56.9964 35.4174 56.6268 35.4167 56.25V25C35.4167 24.4474 35.6362 23.9175 36.0269 23.5268C36.4176 23.1361 36.9475 22.9166 37.5001 22.9166H62.5001C63.0526 22.9166 63.5825 23.1361 63.9732 23.5268C64.3639 23.9175 64.5834 24.4474 64.5834 25V56.25C64.5834 56.8025 64.3639 57.3324 63.9732 57.7231C63.5825 58.1138 63.0526 58.3333 62.5001 58.3333ZM50.0001 45.8333C50.4116 45.8332 50.8139 45.955 51.1563 46.1833L60.4167 52.3583V27.0833H39.5834V52.3583L48.8438 46.1833C49.1862 45.955 49.5886 45.8332 50.0001 45.8333Z" fill="#232323"/>
<path d="M83.3333 93.75H16.6667C13.905 93.7467 11.2574 92.6482 9.30462 90.6954C7.35184 88.7426 6.25331 86.095 6.25 83.3334V26.9667C6.25224 25.3498 6.62873 23.7554 7.35 22.3084L13.6521 9.7042C14.1681 8.66382 14.9653 7.78879 15.9532 7.17829C16.9412 6.56779 18.0803 6.24622 19.2417 6.25003H80.7583C81.9197 6.24622 83.0588 6.56779 84.0468 7.17829C85.0347 7.78879 85.8319 8.66382 86.3479 9.7042L92.65 22.3084C93.3713 23.7554 93.7478 25.3498 93.75 26.9667V83.3334C93.7467 86.095 92.6482 88.7426 90.6954 90.6954C88.7426 92.6482 86.095 93.7467 83.3333 93.75ZM19.2417 10.4167C18.8546 10.4155 18.4749 10.5227 18.1457 10.7264C17.8164 10.93 17.5509 11.2219 17.3792 11.5688L11.0771 24.1667C10.6422 25.036 10.4161 25.9947 10.4167 26.9667V83.3334C10.4167 84.991 11.0751 86.5807 12.2472 87.7528C13.4194 88.9249 15.0091 89.5834 16.6667 89.5834H83.3333C84.9909 89.5834 86.5806 88.9249 87.7527 87.7528C88.9249 86.5807 89.5833 84.991 89.5833 83.3334V26.9667C89.5829 25.9968 89.3568 25.0403 88.9229 24.1729L82.6208 11.5688C82.4491 11.2219 82.1835 10.93 81.8543 10.7264C81.5251 10.5227 81.1454 10.4155 80.7583 10.4167H19.2417Z" fill="#232323"/>
<path d="M91.6666 27.0833H68.9374C68.375 27.0869 67.8332 26.8715 67.4269 26.4826C67.0205 26.0938 66.7815 25.562 66.7604 25C66.7497 24.7314 66.7932 24.4635 66.8883 24.2121C66.9833 23.9607 67.1279 23.7309 67.3136 23.5366C67.4992 23.3422 67.722 23.1872 67.9688 23.0807C68.2155 22.9742 68.4812 22.9184 68.7499 22.9166H91.6666C92.2191 22.9166 92.749 23.1361 93.1397 23.5268C93.5304 23.9175 93.7499 24.4474 93.7499 25C93.7499 25.5525 93.5304 26.0824 93.1397 26.4731C92.749 26.8638 92.2191 27.0833 91.6666 27.0833Z" fill="#232323"/>
</svg>
