<svg width="100" height="100" viewBox="0 0 100 100" fill="none" xmlns="http://www.w3.org/2000/svg">
<path d="M70.2656 34.3984V46.9004C70.2656 52.2876 68.1256 57.4542 64.3162 61.2635C60.5069 65.0728 55.3403 67.2129 49.9531 67.2129C44.5659 67.2129 39.3994 65.0728 35.59 61.2635C31.7807 57.4542 29.6406 52.2876 29.6406 46.9004V32.8359C29.6406 32.8359 48.3906 32.8359 57.7656 25.0234C57.7656 25.0234 64.0156 23.4609 70.2656 34.3984Z" fill="#FFDAAA"/>
<path d="M70.2656 28.1484V34.3984C64.0156 23.4609 57.7656 25.0234 57.7656 25.0234C48.3906 32.8359 29.6406 32.8359 29.6406 32.8359V28.1484C29.6406 22.7612 31.7807 17.5947 35.59 13.7853C39.3994 9.976 44.5659 7.83594 49.9531 7.83594C55.3403 7.83594 60.5069 9.976 64.3162 13.7853C68.1256 17.5947 70.2656 22.7612 70.2656 28.1484Z" fill="#1D2939"/>
<path d="M62.3066 71.9883C61.5273 78.4648 49.9531 86.1055 49.9531 86.1055C49.9531 86.1055 38.377 78.4629 37.5996 71.9863L37.6016 71.9844C38.0438 71.6177 38.3998 71.1581 38.6442 70.6382C38.8886 70.1184 39.0154 69.551 39.0156 68.9766V64.0859H39.123C42.3663 66.1276 46.1207 67.211 49.9531 67.211C53.7855 67.211 57.5399 66.1276 60.7832 64.0859H60.8906V68.9766C60.8904 69.5509 61.0168 70.1182 61.2609 70.6381C61.505 71.158 61.8607 71.6177 62.3027 71.9844C62.3047 71.9863 62.3066 71.9863 62.3066 71.9883Z" fill="#FFDAAA"/>
<path d="M87.4531 91.4023V96.8984H12.4531V91.4023C12.4535 88.0279 13.5461 84.7441 15.5676 82.0421C17.5891 79.3402 20.4308 77.365 23.668 76.4121L36.2109 72.7246C36.7194 72.5759 37.192 72.3246 37.5996 71.9863C38.377 78.4629 49.9531 86.1055 49.9531 86.1055C49.9531 86.1055 61.5273 78.4648 62.3066 71.9883C62.7142 72.3252 63.186 72.5757 63.6934 72.7246L76.2363 76.4121C79.4739 77.3646 82.3161 79.3395 84.338 82.0416C86.3598 84.7436 87.4527 88.0276 87.4531 91.4023Z" fill="#5FCD7B"/>
<path d="M37.5996 71.9844H37.6029L37.5996 71.9877V71.9844Z" fill="#E0E0E2"/>
<path d="M62.3065 71.9844V71.9883C62.3065 71.9863 62.3046 71.9863 62.3026 71.9844H62.3065ZM24.1714 34.3994H29.6401V51.5869H24.1714C23.1354 51.5869 22.1418 51.1754 21.4093 50.4428C20.6767 49.7102 20.2651 48.7167 20.2651 47.6807V38.3057C20.2651 37.7927 20.3662 37.2847 20.5625 36.8108C20.7588 36.3369 21.0465 35.9063 21.4093 35.5435C21.772 35.1808 22.2026 34.8931 22.6765 34.6968C23.1505 34.5005 23.6584 34.3994 24.1714 34.3994Z" fill="#E0E0E2"/>
<path d="M75.7336 51.5869H70.2649V34.3994H75.7336C76.7696 34.3994 77.7632 34.811 78.4958 35.5435C79.2283 36.2761 79.6399 37.2697 79.6399 38.3057V47.6807C79.6399 48.7167 79.2283 49.7102 78.4958 50.4428C77.7632 51.1754 76.7696 51.5869 75.7336 51.5869Z" fill="#E0E0E2"/>
<path d="M56.2026 53.1494C56.2026 54.807 55.5442 56.3967 54.3721 57.5688C53.2 58.7409 51.6102 59.3994 49.9526 59.3994C48.295 59.3994 46.7053 58.7409 45.5332 57.5688C44.3611 56.3967 43.7026 54.807 43.7026 53.1494H56.2026Z" fill="#FF5023"/>
<path d="M76.5151 90.6494H62.4526V96.8994H76.5151V90.6494Z" fill="#E0E0E2"/>
<path d="M85.6367 81.082C83.419 78.1029 80.2901 75.9284 76.7246 74.8887L64.1816 71.2012C63.6973 71.0564 63.2724 70.7597 62.9696 70.3549C62.6668 69.9501 62.5022 69.4586 62.5 68.9531V64.8164C66.5578 61.9843 69.54 57.8644 70.9629 53.125H75.7813C77.2312 53.1234 78.6212 52.5467 79.6465 51.5215C80.6717 50.4962 81.2484 49.1062 81.25 47.6562V38.2812C81.2481 36.9668 80.7736 35.6968 79.913 34.7032C79.0524 33.7096 77.8632 33.0586 76.5625 32.8691V28.125C76.5625 13.4785 64.6465 1.5625 50 1.5625C35.3535 1.5625 23.4375 13.4785 23.4375 28.125V32.8691C22.1368 33.0586 20.9476 33.7096 20.087 34.7032C19.2264 35.6968 18.7519 36.9668 18.75 38.2812V47.6562C18.7516 49.1062 19.3283 50.4962 20.3535 51.5215C21.3788 52.5467 22.7688 53.1234 24.2188 53.125H25V55.4688C25.0016 56.9187 25.5783 58.3087 26.6035 59.334C27.6288 60.3592 29.0188 60.9359 30.4688 60.9375H33.2578C34.497 62.4096 35.9232 63.7136 37.5 64.8164V68.9531C37.4979 69.4586 37.3332 69.9501 37.0304 70.3549C36.7276 70.7597 36.3027 71.0564 35.8184 71.2012L23.2754 74.8887C19.714 75.9365 16.5875 78.1092 14.3636 81.0816C12.1396 84.054 10.9377 87.6666 10.9375 91.3789V96.875C10.9375 97.2894 11.1021 97.6868 11.3951 97.9799C11.6882 98.2729 12.0856 98.4375 12.5 98.4375H87.5C87.9144 98.4375 88.3118 98.2729 88.6049 97.9799C88.8979 97.6868 89.0625 97.2894 89.0625 96.875V91.3789C89.0712 87.6653 87.8685 84.0502 85.6367 81.082ZM68.75 29.2891C62.9883 22.2109 57.6914 23.4199 57.4336 23.4844C57.2054 23.5407 56.993 23.6482 56.8125 23.7988C49.5137 29.8828 35.8574 31 31.25 31.2051V28.125C31.25 23.1522 33.2254 18.3831 36.7418 14.8667C40.2581 11.3504 45.0272 9.375 50 9.375C54.9728 9.375 59.742 11.3504 63.2583 14.8667C66.7746 18.3831 68.75 23.1522 68.75 28.125V29.2891ZM78.125 38.2812V47.6562C78.1245 48.2777 77.8774 48.8735 77.438 49.313C76.9985 49.7524 76.4027 49.9995 75.7813 50H71.875V35.9375H75.7813C76.4027 35.938 76.9985 36.1851 77.438 36.6245C77.8774 37.064 78.1245 37.6598 78.125 38.2812ZM26.5625 28.125C26.5625 21.909 29.0318 15.9476 33.4272 11.5522C37.8226 7.1568 43.784 4.6875 50 4.6875C56.216 4.6875 62.1774 7.1568 66.5728 11.5522C70.9682 15.9476 73.4375 21.909 73.4375 28.125V32.8125H71.875V28.125C71.875 22.3234 69.5703 16.7594 65.468 12.657C61.3656 8.55468 55.8016 6.25 50 6.25C44.1984 6.25 38.6344 8.55468 34.532 12.657C30.4297 16.7594 28.125 22.3234 28.125 28.125V32.8125H26.5625V28.125ZM24.2188 50C23.5973 49.9995 23.0015 49.7524 22.562 49.313C22.1226 48.8735 21.8755 48.2777 21.875 47.6562V38.2812C21.8755 37.6598 22.1226 37.064 22.562 36.6245C23.0015 36.1851 23.5973 35.938 24.2188 35.9375H28.125V50H24.2188ZM30.4688 57.8125C29.8473 57.812 29.2515 57.5649 28.812 57.1255C28.3726 56.686 28.1255 56.0902 28.125 55.4688V53.125H29.0371C29.5253 54.7615 30.2045 56.3348 31.0605 57.8125H30.4688ZM34.7793 57.8125C32.4812 54.6289 31.2462 50.8014 31.25 46.875V34.3359C34.3474 34.2046 37.4338 33.8843 40.4922 33.377C48.3184 32.0723 54.3594 29.7559 58.4609 26.4863C59.6328 26.4102 64.0234 26.7344 68.75 34.7949V46.875C68.7522 50.4826 67.7129 54.0141 65.7571 57.0455C63.8013 60.0768 61.012 62.4792 57.7242 63.9641C54.4363 65.449 50.7898 65.9533 47.2224 65.4164C43.655 64.8795 40.3184 63.3243 37.6133 60.9375H39.0625C39.4769 60.9375 39.8743 60.7729 40.1674 60.4799C40.4604 60.1868 40.625 59.7894 40.625 59.375C40.625 58.9606 40.4604 58.5632 40.1674 58.2701C39.8743 57.9771 39.4769 57.8125 39.0625 57.8125H34.7793ZM60.666 72.4648C59.5781 76.6777 53.2988 81.8535 50 84.1875C46.6992 81.8555 40.4219 76.6836 39.334 72.4648C40.1635 71.4823 40.6205 70.239 40.625 68.9531V66.6367C43.5545 68.0281 46.7569 68.75 50 68.75C53.2431 68.75 56.4455 68.0281 59.375 66.6367V68.9531C59.3798 70.2389 59.8368 71.4821 60.666 72.4648ZM75 95.3125H64.0625V92.1875H75V95.3125ZM85.9375 95.3125H78.125V90.625C78.125 90.2106 77.9604 89.8132 77.6674 89.5201C77.3743 89.2271 76.9769 89.0625 76.5625 89.0625H62.5C62.0856 89.0625 61.6882 89.2271 61.3951 89.5201C61.1021 89.8132 60.9375 90.2106 60.9375 90.625V95.3125H14.0625V91.3789C14.0747 88.3447 15.0627 85.3948 16.8803 82.9652C18.6979 80.5356 21.2489 78.7551 24.1563 77.8867L36.6191 74.2227C37.5781 76.7715 39.7363 79.582 43.0625 82.6055C44.9751 84.3376 47.0053 85.9352 49.1387 87.3867C49.3945 87.5549 49.6939 87.6445 50 87.6445C50.3061 87.6445 50.6055 87.5549 50.8613 87.3867C52.9947 85.9352 55.0249 84.3376 56.9375 82.6055C60.2637 79.582 62.4219 76.7715 63.3809 74.2227L75.8438 77.8867C78.7511 78.7551 81.3021 80.5356 83.1197 82.9652C84.9374 85.3948 85.9253 88.3447 85.9375 91.3789V95.3125Z" fill="black"/>
<path d="M42.1875 40.625V39.0625C42.1875 38.6481 42.0229 38.2507 41.7299 37.9576C41.4368 37.6646 41.0394 37.5 40.625 37.5C40.2106 37.5 39.8132 37.6646 39.5201 37.9576C39.2271 38.2507 39.0625 38.6481 39.0625 39.0625V40.625C39.0625 41.0394 39.2271 41.4368 39.5201 41.7299C39.8132 42.0229 40.2106 42.1875 40.625 42.1875C41.0394 42.1875 41.4368 42.0229 41.7299 41.7299C42.0229 41.4368 42.1875 41.0394 42.1875 40.625ZM59.375 42.1875C59.7894 42.1875 60.1868 42.0229 60.4799 41.7299C60.7729 41.4368 60.9375 41.0394 60.9375 40.625V39.0625C60.9375 38.6481 60.7729 38.2507 60.4799 37.9576C60.1868 37.6646 59.7894 37.5 59.375 37.5C58.9606 37.5 58.5632 37.6646 58.2701 37.9576C57.9771 38.2507 57.8125 38.6481 57.8125 39.0625V40.625C57.8125 41.0394 57.9771 41.4368 58.2701 41.7299C58.5632 42.0229 58.9606 42.1875 59.375 42.1875ZM50 60.9375C52.0713 60.9352 54.0571 60.1113 55.5217 58.6467C56.9863 57.1821 57.8102 55.1963 57.8125 53.125C57.8125 52.7106 57.6479 52.3132 57.3549 52.0201C57.0618 51.7271 56.6644 51.5625 56.25 51.5625H43.75C43.3356 51.5625 42.9382 51.7271 42.6451 52.0201C42.3521 52.3132 42.1875 52.7106 42.1875 53.125C42.1898 55.1963 43.0137 57.1821 44.4783 58.6467C45.9429 60.1113 47.9287 60.9352 50 60.9375ZM54.4197 54.6875C54.0967 55.6016 53.4983 56.3931 52.7067 56.9529C51.9152 57.5128 50.9695 57.8134 50 57.8134C49.0305 57.8134 48.0848 57.5128 47.2933 56.9529C46.5017 56.3931 45.9033 55.6016 45.5803 54.6875H54.4197Z" fill="black"/>
</svg>
