<svg width="100" height="100" viewBox="0 0 100 100" fill="none" xmlns="http://www.w3.org/2000/svg">
<path d="M50.0033 4.6875C39.1023 4.6875 30.2644 13.5303 30.2644 24.4386C30.2644 35.3469 39.1023 44.1897 50.0033 44.1897C55.7436 44.1897 61.1984 41.688 64.9479 37.3385L69.672 26.0866C69.718 25.5387 69.7391 24.9884 69.7392 24.4386C69.7392 13.5303 60.9044 4.68751 50.0033 4.6875Z" fill="#5FCD7B"/>
<path fill-rule="evenodd" clip-rule="evenodd" d="M49.9346 15.5528C50.1288 15.4961 50.3352 15.4961 50.5295 15.5528L57.0488 17.4574C57.5014 17.5897 57.8125 18.0046 57.8125 18.4761V22.3817C57.8124 24.606 57.1124 26.774 55.8117 28.5784C54.511 30.3828 52.6755 31.7322 50.5652 32.4354C50.3475 32.5079 50.1121 32.5079 49.8944 32.4354C47.7835 31.7323 45.9473 30.3828 44.6462 28.578C43.345 26.7733 42.6448 24.6048 42.6448 22.3799V18.4761C42.6448 18.0045 42.956 17.5895 43.4087 17.4574L49.9346 15.5528ZM44.7672 19.2719V22.3799C44.7672 22.3798 44.7672 22.3799 44.7672 22.3799C44.7672 24.1592 45.3272 25.8934 46.3678 27.3368C47.3389 28.6837 48.6825 29.7136 50.2296 30.3021C51.7762 29.7135 53.1193 28.6839 54.09 27.3373C55.1302 25.8943 55.69 24.1605 55.69 22.3817C55.69 22.3817 55.69 22.3817 55.69 22.3817V19.2716L50.2317 17.677L44.7672 19.2719Z" fill="#EFF2FC"/>
<path fill-rule="evenodd" clip-rule="evenodd" d="M54.6029 20.8943C55.0173 21.3088 55.0173 21.9807 54.6029 22.3951L50.2544 26.7435C49.84 27.158 49.1681 27.158 48.7536 26.7435L46.2171 24.207C45.8026 23.7925 45.8026 23.1206 46.2171 22.7062C46.6315 22.2917 47.3034 22.2917 47.7179 22.7062L49.504 24.4923L53.1021 20.8943C53.5165 20.4799 54.1884 20.4799 54.6029 20.8943Z" fill="#EFF2FC"/>
<path d="M37.7565 8.94788C35.4207 10.797 33.5333 13.1511 32.2358 15.8338C30.9383 18.5165 30.2643 21.4583 30.2644 24.4387C30.2644 27.0325 30.775 29.601 31.767 31.9973C32.759 34.3937 34.213 36.5711 36.0459 38.4052C37.8788 40.2392 40.0548 41.6941 42.4497 42.6866C44.8445 43.6791 47.4112 44.1899 50.0033 44.1898C52.8398 44.1899 55.6429 43.5782 58.2219 42.3965C60.8008 41.2147 63.0949 39.4906 64.9479 37.3416L65.0822 37.0212C61.647 39.6416 57.4478 41.0621 53.1283 41.0648C50.5362 41.0649 47.9695 40.5541 45.5747 39.5616C43.1799 38.569 41.0039 37.1142 39.1709 35.2801C37.338 33.4461 35.884 31.2687 34.892 28.8723C33.9 26.4759 33.3894 23.9075 33.3894 21.3137C33.3951 16.8143 34.9358 12.4517 37.7565 8.94788Z" fill="#31AD5D"/>
<path d="M77.2912 32.6797C77.2912 33.6856 77.0932 34.6816 76.7085 35.611C76.3238 36.5403 75.76 37.3847 75.0492 38.096C74.3383 38.8073 73.4945 39.3715 72.5657 39.7565C71.637 40.1414 70.6416 40.3395 69.6363 40.3395C68.6311 40.3395 67.6357 40.1414 66.7069 39.7565C65.7782 39.3715 64.9343 38.8073 64.2235 38.096C63.5127 37.3847 62.9488 36.5403 62.5641 35.611C62.1794 34.6816 61.9814 33.6856 61.9814 32.6797C61.9814 30.6481 62.7879 28.6998 64.2235 27.2633C65.6591 25.8268 67.6061 25.0198 69.6363 25.0198C71.6665 25.0198 73.6136 25.8268 75.0492 27.2633C76.4847 28.6998 77.2912 30.6481 77.2912 32.6797Z" fill="#A7C305"/>
<path d="M72.6165 47.6652L79.3096 43.8241C80.5455 43.1148 82.0633 43.4437 82.7126 44.5616L95.0193 65.7499C95.6686 66.8678 95.1963 68.3388 93.9603 69.0482L87.2673 72.8893C86.0313 73.5986 84.5135 73.2696 83.8642 72.1517L71.5576 50.9635C70.9082 49.8455 71.3805 48.3745 72.6165 47.6652Z" fill="#A7C305"/>
<path d="M22.077 45.7768L28.77 49.6179C30.006 50.3273 30.4266 51.8874 29.713 53.116L16.1882 76.4014C15.4747 77.6299 13.9051 78.048 12.6692 77.3386L5.97611 73.4975C4.74013 72.7882 4.31958 71.2281 5.03317 69.9995L18.5579 46.7141C19.2715 45.4855 20.841 45.0675 22.077 45.7768Z" fill="#549AD4"/>
<path d="M20.6087 45.4375C19.7844 45.4965 19.004 45.9453 18.558 46.7129L5.03367 69.9991C4.32007 71.2277 4.74063 72.7868 5.97659 73.4961L12.6686 77.338C13.9046 78.0473 15.4734 77.6297 16.187 76.4011L16.5868 75.7145L10.6332 72.2999C9.39723 71.5906 8.9767 70.0284 9.6903 68.7998L22.818 46.2003L22.0765 45.7763C21.613 45.5106 21.1032 45.4032 20.6087 45.4375Z" fill="#3588CB"/>
<path d="M28.7643 55.1558L38.2046 57.0325L50.001 63.9367L74.921 78.5236C74.921 78.5236 75.565 79.7394 75.5683 80.416C75.5717 81.0926 75.3548 81.8093 74.921 82.3714C74.4873 82.9336 73.8196 83.4079 73.0759 83.5696C72.3322 83.7314 71.4676 83.4769 70.7354 83.2212C70.0031 82.9655 68.7549 82.0778 68.7549 82.0778C68.7549 82.0778 69.1341 83.7138 68.9709 84.5119C68.8234 85.2334 68.4518 85.9422 67.9276 86.4594C67.5504 86.8315 67.039 87.104 66.5163 87.1915C65.7361 87.3221 64.1687 86.8449 64.1687 86.8449C63.6712 87.8204 63.6059 89.2019 63.1163 89.9371C62.6267 90.6721 62.6345 90.8804 61.5927 91.2833C60.551 91.686 58.6501 91.0783 56.925 91.35C56.925 91.35 56.8142 93.076 56.4864 93.6648C56.1586 94.2536 55.9007 94.4014 55.2428 94.8051C54.5849 95.2091 52.8531 95.1376 52.1507 94.7325L48.2464 92.4919L28.1239 83.7294L21.1621 78.6169L17.1716 75.642L28.7643 55.1558Z" fill="#FFC6A0"/>
<path d="M48.0855 62.838C44.4395 68.0077 37.206 72.9206 35.8657 69.2397C34.9344 66.6821 39.1884 59.1313 41.6027 56.5706C44.6803 53.3062 54.4519 52.5951 61.6947 53.8754C68.9376 55.1558 72.5591 52.5951 72.5591 52.5951L82.8637 70.5202L75.1784 78.3404" fill="#E3C983"/>
<path d="M44.7434 87.1252C46.2883 88.0119 46.814 89.962 45.922 91.4978L44.634 93.7154C43.742 95.2511 41.7801 95.7737 40.2351 94.887C38.6901 94.0004 38.1645 92.0502 39.0564 90.5145L40.3445 88.2969C41.2365 86.7611 43.1984 86.2386 44.7434 87.1252Z" fill="#E3C983"/>
<path d="M42.9063 86.6999C41.8759 86.7714 40.9005 87.336 40.343 88.2959L39.0552 90.5143C38.1632 92.0501 38.6912 94.0005 40.2362 94.8871C41.2549 95.4718 42.4486 95.4328 43.4037 94.9049C43.3901 94.899 43.3747 94.893 43.3611 94.8871C41.8161 94.0005 41.2882 92.0501 42.1802 90.5143L43.4679 88.2959C43.7717 87.7726 44.2075 87.3781 44.7007 87.1058C44.1324 86.7904 43.5098 86.658 42.9063 86.6999Z" fill="#96712D"/>
<path d="M39.8098 82.8155C41.3547 83.7022 41.8804 85.6524 40.9885 87.1881L38.4123 91.6234C37.5203 93.1591 35.5584 93.6817 34.0135 92.795C32.4685 91.9083 31.9428 89.9582 32.8348 88.4225L35.4109 83.9872C36.3029 82.4514 38.2648 81.9289 39.8098 82.8155Z" fill="#E3C983"/>
<path d="M37.9748 82.3913C36.9445 82.4627 35.969 83.0274 35.4115 83.9872L32.836 88.4211C31.9441 89.9568 32.469 91.9072 34.0139 92.7939C35.0327 93.3786 36.2264 93.3425 37.1814 92.8175C37.1672 92.8116 37.1531 92.8057 37.1389 92.7939C35.5939 91.9072 35.069 89.9568 35.961 88.4211L38.5365 83.9872C38.8407 83.4634 39.275 83.0695 39.7693 82.7971C39.2003 82.4806 38.5792 82.3493 37.9748 82.3913Z" fill="#96712D"/>
<path d="M34.8764 78.5058C36.4214 79.3924 36.9471 81.3426 36.0551 82.8783L32.1909 89.5313C31.2989 91.067 29.337 91.5895 27.792 90.7029C26.247 89.8162 25.7213 87.8661 26.6133 86.3303L30.4775 79.6774C31.3695 78.1416 33.3314 77.6191 34.8764 78.5058ZM27.3666 78.6313C28.9116 79.518 29.4373 81.4681 28.5453 83.0039L27.9013 84.1127C27.0093 85.6484 25.0474 86.171 23.5024 85.2843C21.9575 84.3977 21.4318 82.4475 22.3238 80.9118L22.9678 79.803C23.8598 78.2672 25.8217 77.7447 27.3666 78.6313Z" fill="#E3C983"/>
<path d="M55.933 53.2981C49.9849 53.1109 43.9113 54.121 41.6031 56.5693C39.1888 59.1301 34.9349 66.6815 35.8662 69.2392C36.3921 70.6837 37.8301 70.7922 39.5982 70.0936C39.3443 69.8875 39.1295 69.6194 38.9909 69.2392C38.0596 66.6815 42.3136 59.1301 44.7278 56.5693C46.6473 54.5334 51.1716 53.4931 56.0612 53.3072C56.0181 53.3058 55.9762 53.304 55.933 53.2981Z" fill="#B38E42"/>
<path d="M28.7654 55.1565L17.1726 75.6413L21.161 78.6165L22.9095 79.9012L22.9674 79.8038C23.5626 78.7789 24.635 78.2187 25.7412 78.2139L25.3018 77.8903L21.3104 74.915L32.1158 55.8217L28.7654 55.1565ZM46.2506 89.0954C46.4532 89.8737 46.3609 90.7261 45.9272 91.4817L48.2463 92.4918L52.1492 94.7316C52.8517 95.1373 54.5856 95.2088 55.2435 94.8048C55.739 94.5007 55.9989 94.2922 56.2413 93.9809L52.3873 91.7655L46.2506 89.0954Z" fill="#FFAF7A"/>
<path d="M33.0406 78.0825C32.0102 78.154 31.0348 78.7187 30.4773 79.6785L26.614 86.3308C25.7221 87.8665 26.247 89.8169 27.7919 90.7036C28.8107 91.2883 30.0044 91.2493 30.9594 90.7213C30.9458 90.7154 30.9305 90.7095 30.9169 90.7036C29.3719 89.8169 28.847 87.8665 29.739 86.3308L33.6022 79.6785C33.906 79.1552 34.3387 78.7577 34.832 78.4853C34.2646 78.1712 33.6429 78.0406 33.0406 78.0825ZM25.5308 78.2077C24.5004 78.2791 23.525 78.8438 22.9675 79.8036L22.3236 80.9113C21.4316 82.447 21.9565 84.3975 23.5015 85.2841C24.5197 85.8682 25.7142 85.8286 26.669 85.3019C26.6554 85.296 26.64 85.29 26.6265 85.2841C25.0814 84.3975 24.5565 82.447 25.4485 80.9113L26.0924 79.8036C26.3963 79.2804 26.8287 78.8828 27.3222 78.6104C26.7548 78.2962 26.1331 78.1657 25.5308 78.2077Z" fill="#96712D"/>
<path d="M80.7573 43.4509C80.2752 43.4391 79.7743 43.5572 79.3109 43.8229L72.6158 47.6648C71.3798 48.3741 70.9076 49.8455 71.5569 50.9634L83.8637 72.1501C84.5131 73.268 86.0302 73.5979 87.2662 72.8886L87.9772 72.4793L76.0915 52.0129C75.4422 50.8949 75.9174 49.4235 77.1534 48.7142L83.1344 45.2843L82.7133 44.5611C82.3074 43.8624 81.5608 43.4723 80.7573 43.4509Z" fill="#94AC04"/>
<path d="M66.0153 25.9382C64.7973 26.5926 63.779 27.5648 63.0688 28.7516C62.3585 29.9385 61.9827 31.2956 61.9812 32.679C61.9813 33.685 62.1794 34.6811 62.5642 35.6105C62.949 36.5399 63.513 37.3843 64.224 38.0955C64.9349 38.8068 65.7789 39.3709 66.7078 39.7557C67.6367 40.1405 68.6322 40.3385 69.6375 40.3383C71.0219 40.3376 72.3802 39.9612 73.5678 39.2492C74.7553 38.5372 75.7277 37.5162 76.3814 36.2951C75.2693 36.8955 74.0259 37.211 72.7622 37.2136C71.7569 37.2138 70.7614 37.0158 69.8326 36.631C68.9037 36.2462 68.0597 35.682 67.3487 34.9708C66.6378 34.2595 66.0738 33.4151 65.689 32.4858C65.3041 31.5564 65.106 30.5603 65.106 29.5543C65.1068 28.2924 65.4192 27.0502 66.0153 25.9382Z" fill="#94AC04"/>
<path d="M50.0009 3.12512C38.2365 3.12518 28.6982 12.6877 28.6982 24.44C28.6982 36.1923 38.2375 45.7518 50.0009 45.7518C55.3284 45.7518 60.4628 43.7428 64.3248 40.2102C65.828 41.278 67.6569 41.9008 69.6314 41.9008C74.7589 41.9008 78.8592 37.7472 78.8592 32.673C78.8592 28.1556 75.5871 24.3817 71.2853 23.6069C70.8461 12.2395 61.468 3.12518 50.0009 3.12512ZM50.0009 6.25292C59.7712 6.25292 67.7212 14.0045 68.1606 23.5734C63.7344 24.2931 60.4158 28.1089 60.4158 32.673C60.4158 34.6451 61.0771 36.5855 62.1155 38.0039C58.7857 40.9702 54.5001 42.627 50.0009 42.627C39.9965 42.627 31.826 34.5046 31.826 24.44C31.826 14.3753 39.9996 6.25298 50.0009 6.25292ZM69.6312 26.5852C72.9712 26.5852 75.7312 29.2863 75.7312 32.673C75.7312 36.0596 72.9794 38.776 69.6312 38.776C66.283 38.776 63.5404 36.0596 63.5404 32.673C63.5404 29.2863 66.2912 26.5852 69.6312 26.5852ZM70.391 30.668L69.1124 32.0045L68.673 31.5776C67.2639 30.1613 65.0109 32.1763 66.4698 33.7807L68.0169 35.3309C68.6347 35.9574 69.6417 35.954 70.2476 35.3277L72.64 32.8347C73.6281 31.8211 72.8549 30.1272 71.4408 30.189C71.0374 30.2067 70.669 30.375 70.391 30.668ZM78.5295 42.4715L71.8283 46.3195C69.8833 47.4358 69.0913 49.8279 70.2049 51.7451L70.3117 51.9311C70.0825 52.025 69.7867 52.1101 69.4482 52.1998C67.8453 52.625 65.3644 52.9385 61.9627 52.3368C58.1739 51.6671 53.8139 51.5253 49.9092 51.9707C46.0045 52.416 42.3919 53.4542 40.4647 55.4982C40.3755 55.5927 40.2536 55.725 40.1627 55.8278L31.002 54.003L31.0691 53.8902C32.2257 51.899 31.5227 49.3917 29.5617 48.2663L22.8605 44.4183C20.8994 43.2928 18.363 43.9429 17.206 45.9349L3.6786 69.221C2.53446 71.2027 3.22499 73.7225 5.18606 74.848L11.8872 78.693C13.6848 79.7245 15.9651 79.2623 17.2365 77.6341L20.8587 80.3347C19.6822 82.6241 20.5211 85.374 22.7201 86.636C23.3382 86.9909 23.9943 87.1959 24.667 87.2525C24.3938 89.1257 25.2371 91.029 27.0045 92.0494C28.3924 92.8459 30.029 92.8793 31.3987 92.2567C31.804 93.0295 32.4214 93.6818 33.2296 94.1456C34.6192 94.9431 36.2499 94.9705 37.6177 94.344C38.0237 95.1195 38.6464 95.7782 39.4547 96.2421C41.7248 97.5448 44.6614 96.7848 45.9941 94.4905L46.6411 93.3736C48.2549 94.2995 49.9727 95.2808 51.374 96.0834C53.6867 97.4107 56.5868 96.6072 57.9012 94.344C58.2039 93.8226 58.3945 93.2944 58.481 92.7298C60.6612 93.6452 63.2502 92.8137 64.4651 90.7219C64.8236 90.1046 65.0334 89.4594 65.0906 88.7872C66.975 89.0642 68.9109 88.1869 69.9182 86.4528C70.2203 85.9325 70.4174 85.4083 70.5041 84.8447C72.6846 85.7612 75.2669 84.9256 76.482 82.8337C77.5741 80.9422 77.0052 79.1887 76.8085 78.7355L82.5637 73.0261C83.706 74.8602 86.1428 75.3367 88.0473 74.2437L94.7485 70.3957C96.6751 69.2901 97.4854 66.8874 96.3718 64.9702L84.0681 43.7866C83.3721 42.5883 82.1231 41.937 80.8212 41.8916C80.0401 41.8621 79.2404 42.0635 78.5295 42.4715ZM93.662 66.5265C93.857 66.8626 93.701 67.3945 93.1798 67.6953L86.4787 71.5402C85.9524 71.8425 85.4035 71.6914 85.2184 71.3725C80.977 64.0261 76.6258 56.5773 72.9146 50.1888C72.7276 49.867 72.8786 49.3176 73.3968 49.0201L80.101 45.1752C80.245 45.0925 80.3719 45.05 80.5496 45.0163C80.8984 44.9632 81.2194 45.1037 81.3582 45.3429L93.662 66.5265ZM21.2889 47.1218L28.0114 50.985C28.4435 51.2342 28.6505 51.8324 28.3593 52.3338L14.8319 75.6229C14.5599 76.0942 13.9696 76.2823 13.4587 75.9891L6.75757 72.1441C6.28807 71.8748 6.10021 71.2784 6.39136 70.777L19.9157 47.4909C20.1341 47.1147 20.5113 46.96 20.8953 46.9907C21.0253 47.0084 21.1612 47.0497 21.2889 47.1218ZM80.9096 70.2615L74.7761 76.3493C66.1683 71.4035 57.4927 66.4349 48.8595 61.4854C48.1616 61.0832 47.2724 61.2775 46.8058 61.9342C45.0751 64.3881 42.5207 66.7312 40.3487 67.9945C39.1633 68.684 38.2663 68.9541 37.7885 68.9588C37.4145 68.9624 37.4061 68.8826 37.3369 68.7054C37.2634 68.5176 37.2695 67.9141 37.5353 66.9508C37.801 65.9875 38.2903 64.7958 38.884 63.5941C40.0716 61.1908 41.7395 58.6996 42.7351 57.6437C43.7466 56.5708 46.2127 55.5336 50.2663 55.0713C53.8275 54.665 57.9656 54.8085 61.4196 55.4191C65.2608 56.0981 68.223 55.7557 70.2416 55.2207C71.2373 54.9567 71.6619 54.7736 71.9046 54.6714C74.9535 59.8924 77.8952 65.0205 80.9096 70.2615ZM29.3449 56.8623L38.1272 58.6109C37.4113 59.7255 36.7025 60.9511 36.0796 62.2116C35.4245 63.5375 34.8687 64.8688 34.5234 66.1206C34.178 67.3725 33.9977 68.6762 34.3982 69.7763C34.9261 71.2261 36.1693 72.127 37.8678 72.0833C39.1341 72.0479 40.5471 71.4927 41.8928 70.7101C44.191 69.3734 46.6296 67.2053 48.5024 64.8817L73.1832 79.0377C74.0027 79.5078 74.2159 80.5222 73.7843 81.2653C73.3527 82.0084 72.3308 82.3339 71.5109 81.8634C65.8521 78.5989 60.1511 75.3592 54.4986 72.1077C54.2277 71.9453 53.9443 71.8809 53.629 71.9004C52.0657 71.9961 51.6059 74.052 52.9424 74.8177L66.6102 82.6601C67.4301 83.1307 67.6606 84.1222 67.2205 84.8846C66.7803 85.647 65.77 85.9563 64.9501 85.4858C61.0423 83.2519 57.1379 81.0123 53.2323 78.7724C51.4258 77.7329 49.8664 80.4426 51.6729 81.4822C54.8292 83.2913 57.9848 85.1 61.1418 86.9078C61.9739 87.3862 62.2098 88.3821 61.7643 89.1537C61.3188 89.9253 60.3139 90.2223 59.494 89.7518C56.8927 88.2577 54.2888 86.7681 51.6851 85.2783C49.8668 84.2276 48.3216 86.9693 50.1289 87.988C51.6112 88.8356 53.125 89.6994 54.5932 90.5483C55.4131 91.0189 55.6392 92.0307 55.2035 92.7759C54.7679 93.521 53.75 93.8445 52.9302 93.3739C51.6265 92.6296 50.3238 91.8833 49.0212 91.1372L47.8799 90.4811C48.1182 88.7564 47.3249 86.8146 45.5302 85.7787C44.7219 85.3145 43.8446 85.1013 42.9669 85.1379C42.8275 83.649 41.981 82.2667 40.5928 81.4699C39.7856 81.007 38.9106 80.7923 38.0357 80.8291C37.8959 79.3345 37.0476 77.9462 35.6585 77.149C33.5632 75.9465 30.9092 76.503 29.4609 78.391C29.1023 77.9463 28.6747 77.5835 28.1518 77.2833C26.3204 76.2323 24.1497 76.5207 22.6498 77.7805L18.8415 74.9426L29.3449 56.8623ZM88.5934 65.1106C87.7305 65.1106 87.031 65.8101 87.031 66.6729C87.031 67.5358 87.7305 68.2353 88.5934 68.2353C89.4563 68.2353 90.1558 67.5358 90.1558 66.6729C90.1558 65.8101 89.4563 65.1106 88.5934 65.1106ZM11.6552 68.9524C10.7924 68.9524 10.0929 69.6519 10.0928 70.5148C10.0928 71.3777 10.7923 72.0772 11.6552 72.0772C12.5181 72.0772 13.2176 71.3777 13.2176 70.5148C13.2176 69.6519 12.5181 68.9524 11.6552 68.9524ZM34.0901 79.8523C34.8714 80.3035 35.1699 81.2959 34.7004 82.1043L30.831 88.7567C30.3615 89.5651 29.3571 89.7939 28.5759 89.3455C27.7948 88.8972 27.4961 87.9172 27.9656 87.1087C29.2545 84.8913 30.5422 82.6733 31.8319 80.4564C32.1841 79.85 32.827 79.5623 33.4676 79.6479C33.681 79.6774 33.8851 79.7348 34.0901 79.8523ZM26.5833 79.987C27.3583 80.4346 27.6601 81.4153 27.1906 82.2238C26.977 82.5929 26.7613 82.9602 26.5467 83.3284C26.0771 84.1369 25.0815 84.3907 24.2886 83.9357C23.4956 83.4803 23.2087 82.4921 23.6783 81.6836L24.3191 80.576C24.6713 79.9696 25.3557 79.6866 25.9974 79.7763C26.2113 79.8058 26.3783 79.8689 26.5833 79.987ZM39.0274 84.1613C39.8046 84.6136 40.1012 85.6018 39.6316 86.4102C38.7694 87.8882 37.9132 89.3686 37.0531 90.8471C36.5835 91.6556 35.5855 91.8941 34.798 91.4421C34.0105 90.9904 33.7251 90.0211 34.1877 89.2145L36.7693 84.7685C37.1219 84.1647 37.7262 83.902 38.3531 83.9445C38.5665 83.9741 38.8225 84.0437 39.0274 84.1613ZM43.327 88.2624C43.5409 88.292 43.7568 88.3646 43.9618 88.4821C44.7286 88.925 45.0386 89.9105 44.569 90.7189L43.2843 92.9343C42.8148 93.7427 41.8062 93.9879 41.0231 93.5385C40.2401 93.089 39.9433 92.0949 40.4128 91.2865L41.6975 89.0711C42.0497 88.4648 42.7097 88.1909 43.327 88.2624Z" fill="black"/>
</svg>
