<svg width="43" height="32" viewBox="0 0 43 32" fill="none" xmlns="http://www.w3.org/2000/svg">
<g clip-path="url(#clip0_650_234)">
<mask id="mask0_650_234" style="mask-type:luminance" maskUnits="userSpaceOnUse" x="0" y="0" width="43" height="32">
<path d="M0.000244141 0H42.5744V32H0.000244141V0Z" fill="white"/>
</mask>
<g mask="url(#mask0_650_234)">
<path fill-rule="evenodd" clip-rule="evenodd" d="M-2.66089 0H45.2348V32H-2.66089V0Z" fill="#199D00"/>
<path fill-rule="evenodd" clip-rule="evenodd" d="M9.40905 9.07063C9.35374 9.81819 9.28744 11.1338 9.92125 11.2688C10.6879 11.3426 10.2651 9.96838 10.5426 9.71919C10.5951 9.59606 10.6918 9.59544 10.6998 9.75075V10.9164C10.6928 11.2955 10.9415 11.4071 11.1346 11.4854C11.3357 11.4699 11.4699 11.4766 11.5486 11.6726L11.6429 13.6889C11.6429 13.6889 12.1092 13.8227 12.1314 12.5548C12.1536 11.8104 11.9829 11.1873 12.083 11.0424C12.0865 10.9001 12.2679 10.8916 12.3936 10.961C12.5941 11.1026 12.6833 11.2776 12.9947 11.2076C13.4686 11.0768 13.7535 10.8458 13.7604 10.4811C13.7328 10.1346 13.694 9.788 13.5442 9.44144C13.5651 9.37838 13.4527 9.21513 13.4735 9.15206C13.5587 9.28575 13.6883 9.27463 13.7177 9.15206C13.6371 8.88575 13.5119 8.63056 13.3091 8.52006C13.1414 8.37206 12.896 8.40231 12.8062 8.71106C12.7646 9.06681 12.9341 9.4895 13.1926 9.83406C13.2475 9.96869 13.3246 10.1924 13.2907 10.3938C13.1532 10.4725 13.0156 10.4397 12.9004 10.3178C12.9004 10.3178 12.5232 10.0343 12.5232 9.97125C12.6233 9.329 12.5454 9.25619 12.49 9.07794C12.4512 8.83188 12.3347 8.753 12.2403 8.58494C12.146 8.48469 12.0183 8.48469 11.9573 8.58494C11.7906 8.87463 11.8683 9.49638 11.9887 9.77494C12.0758 10.0311 12.2088 10.1918 12.1459 10.1918C12.0942 10.3366 11.9872 10.3031 11.9094 10.1361C11.7983 9.79075 11.776 9.2755 11.776 9.04356C11.7427 8.75588 11.706 8.14231 11.5171 7.98644C11.4019 7.82919 11.2311 7.90588 11.1714 8.04944C11.159 8.33494 11.1577 8.62038 11.1898 8.8835C11.3193 9.34494 11.3601 9.75075 11.4229 10.2233C11.4404 10.8563 11.0577 10.4979 11.0752 10.1841C11.1634 9.7765 11.1405 9.13488 11.0621 8.97225C11 8.80963 10.9266 8.7695 10.7754 8.79625C10.6553 8.78894 10.3464 9.12694 10.2597 9.68763C10.2597 9.68763 10.1857 9.97625 10.1542 10.2325C10.1118 10.5221 9.92163 10.7264 9.78817 10.1918C9.67292 9.80319 9.60207 8.8465 9.40899 9.07056L9.40905 9.07063Z" fill="white"/>
<path fill-rule="evenodd" clip-rule="evenodd" d="M11.4924 12.1381C10.8158 12.4696 10.1616 12.7787 9.49609 13.0991C9.52042 12.6456 10.4452 11.8269 11.0758 11.8154C11.4863 11.8269 11.3832 11.9747 11.4924 12.1381Z" fill="white"/>
<path fill-rule="evenodd" clip-rule="evenodd" d="M11.1435 12.765C10.0914 15.4829 13.6072 15.8616 14.0001 12.8763C14.0371 12.7538 14.1853 12.6313 14.2113 12.8318C14.1297 15.5348 11.4918 15.7205 11.0435 14.8701C10.9325 14.6697 10.899 14.2241 10.8879 13.9568C10.8212 13.4259 10.5434 13.6301 10.499 14.1573C10.4544 14.4506 10.4656 14.5324 10.4656 14.8145C10.6064 16.9494 14.0039 16.0324 14.5559 14.2687C14.8486 13.2921 14.5077 12.5719 14.6669 12.5756C15.0041 12.9394 15.4746 12.6238 15.5783 12.4976C15.6229 12.4344 15.7341 12.3937 15.8118 12.4753C16.0748 12.6648 16.5381 12.5755 16.6343 12.2414C16.69 11.9146 16.7344 11.5768 16.7455 11.2278C16.5306 11.2947 16.3714 11.3391 16.3565 11.4283L16.3121 11.7179C16.2936 11.8108 16.1082 11.8144 16.1009 11.6956C16.0194 11.3243 15.6822 11.276 15.4784 11.8516C15.3413 11.9629 15.0931 11.9853 15.0671 11.8182C15.1004 11.432 14.9448 11.38 14.6337 11.5619C14.5336 10.7971 14.4336 10.0657 14.3335 9.30076C14.4633 9.29701 14.5819 9.39351 14.7005 9.24501C14.5707 8.84038 14.2966 8.01232 14.1446 7.95288C14.0705 7.86382 14.0074 7.91951 13.9112 7.94176C13.7482 7.99376 13.5963 8.13488 13.6444 8.40963C13.8371 9.58288 13.963 10.4778 14.1557 11.6511C14.1853 11.7884 14.0705 11.9703 13.9223 11.9517C13.6704 11.7809 13.6076 11.4357 13.1777 11.4504C12.8664 11.4542 12.5106 11.7921 12.4663 12.1189C12.4144 12.3787 12.3958 12.6608 12.4662 12.8874C12.6849 13.151 12.9479 13.1251 13.1776 13.0657C13.3666 12.9878 13.5221 12.7984 13.5889 12.8429C13.6334 12.8986 13.5999 13.5223 12.6996 14.0013C12.155 14.2463 11.7215 14.3021 11.4882 13.8565C11.3437 13.578 11.4993 12.5198 11.1435 12.7649V12.765Z" fill="white"/>
<path fill-rule="evenodd" clip-rule="evenodd" d="M15.6062 10.0019C15.8173 9.92389 16.8178 8.77664 16.8178 8.77664C16.7659 8.73208 16.7195 8.69864 16.6677 8.65408C16.612 8.60583 16.6176 8.55758 16.6677 8.50927C16.9159 8.36452 16.8362 8.04702 16.7066 7.90227C16.4917 7.80564 16.3046 7.83727 16.1674 7.90777C15.9933 8.07489 15.9526 8.34214 16.0898 8.50927C16.2232 8.57239 16.3565 8.70796 16.2675 8.7822C15.8582 9.22033 14.7374 9.97595 14.8671 10.0019C14.8948 10.039 15.584 10.0371 15.6062 10.0019ZM9.56469 14.0625C9.18951 14.6615 9.15683 15.5565 9.36388 15.8233C9.47389 15.9493 9.65462 16.0045 9.78833 15.9651C10.0241 15.8626 10.1272 15.384 10.0713 15.2088C9.99257 15.0855 9.93064 15.0659 9.85206 15.1709C9.68617 15.5084 9.61732 15.2768 9.60279 15.0882C9.57735 14.7305 9.61096 14.4011 9.64969 14.1402C9.69098 13.8728 9.64907 13.9546 9.56469 14.0625ZM25.5975 13.1031C25.2347 12.3206 24.7325 11.5473 24.5727 11.2502C24.413 10.953 23.2067 9.19852 23.0291 9.0012C22.6372 8.53452 23.6655 9.19558 22.899 8.26895C22.6068 8.0177 22.5898 8.00239 22.3473 7.79739C22.2249 7.71039 21.9262 7.55146 21.8733 7.81489C21.8467 8.04721 21.861 8.17314 21.8999 8.36658C21.9299 8.49552 22.1173 8.71145 22.2095 8.83658C23.4333 10.4853 24.5186 12.1503 25.5651 14.2438C25.7304 14.165 25.6942 13.2341 25.5976 13.1031H25.5975Z" fill="white"/>
<path fill-rule="evenodd" clip-rule="evenodd" d="M24.0055 15.7212C23.9342 15.8015 24.1816 16.1447 24.5032 16.1443C25.041 16.0818 25.5144 15.7791 25.9528 14.9822C26.07 14.7963 26.2761 14.3988 26.282 14.0905C26.3231 12.2827 26.1918 10.8759 25.9215 9.56921C25.9042 9.44196 25.9147 9.29234 25.9362 9.25421C25.9711 9.21253 26.0892 9.2544 26.1518 9.15146C26.2438 9.0574 25.9077 8.27834 25.7162 7.97828C25.6482 7.84428 25.6245 7.75478 25.5118 7.99403C25.3934 8.1884 25.3139 8.52765 25.3232 8.84465C25.5798 10.6248 25.6586 12.1821 25.8262 13.9623C25.8399 14.1344 25.8146 14.3846 25.7004 14.4843C25.2781 14.9263 24.6684 15.4704 24.0055 15.7212ZM31.2703 15.7118C30.8843 15.9354 30.8839 16.1926 31.196 16.2019C31.7337 16.1393 32.3692 16.0946 32.8075 15.4313C32.9248 15.2455 33.0641 14.7429 33.0701 14.4346C33.1111 12.6268 33.0466 11.2774 32.7763 9.97084C32.759 9.84353 32.7028 9.55059 32.7243 9.5124C32.7591 9.4229 32.9344 9.52215 32.9971 9.41915C33.089 9.32515 32.5432 8.62246 32.3516 8.3224C32.2837 8.18846 32.26 8.09896 32.1474 8.33815C32.0289 8.53259 31.9876 8.8814 32.035 9.18884C32.3201 11.1218 32.5324 12.574 32.5762 14.2873C32.5516 14.4499 32.5455 14.5376 32.4694 14.7425C32.3011 14.9587 32.1147 15.229 31.9398 15.3597C31.765 15.4903 31.3919 15.6151 31.2703 15.7119V15.7118Z" fill="white"/>
<path fill-rule="evenodd" clip-rule="evenodd" d="M31.5595 13.9787C31.5551 13.5266 31.5659 13.1363 31.5511 12.7991C31.5362 12.4619 31.4768 12.1874 31.3604 11.9481C31.2502 11.6914 31.3186 11.4853 31.2668 11.2119C31.2151 10.9386 31.2278 10.5294 31.1497 10.2051C31.1283 10.0785 31.0626 9.67294 31.083 9.63407C31.1148 9.54357 31.2361 9.63688 31.2954 9.532C31.3841 9.435 30.9875 8.4065 30.7863 8.11282C30.7139 7.98113 30.5825 8.02625 30.4206 8.24032C30.2703 8.38125 30.326 8.70257 30.3834 9.00819C30.7693 11.0264 31.0571 12.8531 30.9943 14.7743C30.9751 14.9376 31.5635 14.2871 31.5595 13.9787ZM28.7083 11.4756C28.4655 11.4711 27.9571 11.0022 27.8088 10.7274C27.7527 10.5699 27.7887 10.4161 27.8381 10.3261C27.928 10.2675 28.0663 10.2017 28.1696 10.2648C28.1696 10.2648 28.2768 10.4151 28.2561 10.4342C28.3886 10.4978 28.4448 10.4612 28.4583 10.4072C28.4673 10.3126 28.4191 10.2562 28.4186 10.152C28.4748 9.8695 28.797 9.82557 28.9184 10.0058C29.0072 10.1156 29.0397 10.349 29.0532 10.5066C29.0518 10.5871 28.9217 10.4926 28.8478 10.512C28.7739 10.5314 28.7561 10.6169 28.7503 10.6942C28.7369 10.8991 28.7127 11.2278 28.7083 11.4755V11.4756ZM24.2286 14.4799C24.2955 13.8657 24.2039 12.7718 24.1978 12.4093C24.1733 11.5531 24.0337 9.89919 23.9673 9.62288C23.8925 9.10207 24.1811 9.68 24.1411 9.37725C24.0475 8.85719 23.7597 8.50463 23.4213 8.02825C23.3121 7.87325 23.3159 7.84169 23.1474 8.06625C22.961 8.49 23.1219 8.78157 23.1701 9.11163C23.4141 10.187 23.5565 11.1764 23.6228 12.1546C23.6891 13.1327 23.7095 14.1903 23.6489 15.2205C23.8318 15.2277 24.1258 14.9241 24.2286 14.4799Z" fill="white"/>
<path fill-rule="evenodd" clip-rule="evenodd" d="M32.386 13.4962C31.958 12.7765 31.3121 11.997 31.1396 11.7072C30.9671 11.4173 29.5078 9.53033 29.3218 9.34095C28.7879 8.77889 29.5666 9.24945 29.2196 8.81533C28.926 8.49233 28.8404 8.39095 28.5892 8.1967C28.4632 8.11514 28.3869 7.95933 28.3455 8.22483C28.329 8.45808 28.3118 8.72795 28.3274 8.92452C28.3266 9.03383 28.4401 9.23914 28.5376 9.36014C29.832 10.9539 31.2438 12.5812 32.3803 14.627C32.542 14.5411 32.4883 13.6228 32.386 13.4962Z" fill="white"/>
<path fill-rule="evenodd" clip-rule="evenodd" d="M12.967 12.1682C12.9362 12.2223 12.8676 12.2924 12.8906 12.365C12.9386 12.4302 12.9771 12.4435 13.0571 12.4471C13.1266 12.4471 13.2236 12.4635 13.2445 12.4224C13.282 12.3812 13.3103 12.2969 13.2792 12.2174C13.2069 12.0361 13.0048 12.1036 12.967 12.1682Z" fill="#1BA400"/>
<path fill-rule="evenodd" clip-rule="evenodd" d="M27.4092 22.6588C27.9816 22.6799 28.3562 22.685 28.8653 22.7456C28.8653 22.7456 29.3043 22.7022 29.461 22.6785C30.1237 22.6151 30.153 23.627 30.153 23.627C30.1458 24.2204 29.9172 24.2515 29.6254 24.3141C29.4587 24.3354 29.3711 24.2141 29.2835 24.0849C29.1735 24.131 29.024 24.1376 28.8429 24.1125C28.6044 24.0975 28.3659 24.0985 28.1274 24.0835C27.874 24.0611 27.7392 24.11 27.4858 24.0876C27.4336 24.1698 27.3657 24.2836 27.2107 24.247C27.0818 24.2326 26.929 23.8699 26.974 23.5941C27.0671 23.3963 27.0416 23.46 27.0318 23.373C24.6916 23.3133 22.3289 23.2087 20.0333 23.2386C18.2372 23.2461 16.4634 23.3208 14.6895 23.3955C13.743 23.3805 13.0201 23.2311 12.5208 22.4991C12.5655 22.4991 14.9355 22.6336 15.6287 22.5888C16.9106 22.5738 18.0806 22.4693 19.3849 22.4319C21.9562 22.4767 24.5052 22.4768 27.0763 22.656C26.8303 22.4873 26.8215 22.089 27.2001 21.9916C27.2323 21.9695 27.2489 22.1897 27.3055 22.1856C27.6084 22.1628 27.4755 22.574 27.4089 22.6587L27.4092 22.6588ZM17.0861 8.45502C16.6964 9.57121 17.3093 10.7921 17.7343 10.6733C18.0409 10.8005 18.2361 10.216 18.3616 9.57558C18.4475 9.39583 18.5123 9.37671 18.5564 9.46908C18.5451 10.3206 18.6175 10.5093 18.8359 10.7678C19.3232 11.1446 19.7264 10.8159 19.758 10.7841L20.1374 10.4039C20.2218 10.3148 20.3343 10.3096 20.4536 10.3881C20.5695 10.4937 20.5533 10.6761 20.8014 10.8026C21.0103 10.8863 21.4568 10.822 21.5604 10.6416C21.6996 10.4025 21.733 10.3203 21.7975 10.2296C21.8968 10.0971 22.0663 10.156 22.0663 10.1979C22.0504 10.2718 21.951 10.3458 22.0189 10.479C22.137 10.5678 22.1643 10.5106 22.2342 10.4909C22.4814 10.3725 22.667 9.83352 22.667 9.83352C22.678 9.63302 22.5659 9.64958 22.4932 9.69089C22.3983 9.74902 22.3921 9.76758 22.2972 9.82571C22.1763 9.84371 21.9419 9.92402 21.8259 9.74414C21.7076 9.52783 21.7059 9.22602 21.6154 9.00789C21.6154 8.99202 21.4584 8.66427 21.6046 8.64327C21.6783 8.65702 21.8357 8.69877 21.8607 8.56596C21.9381 8.43646 21.6951 8.06983 21.5288 7.88464C21.3844 7.72577 21.1843 7.70664 20.9912 7.86883C20.856 7.99352 20.8754 8.13283 20.8489 8.26489C20.8144 8.41652 20.8218 8.60308 20.9754 8.80364C21.1104 9.07033 21.3566 9.41383 21.2757 9.89683C21.2757 9.89683 21.1319 10.1251 20.8813 10.0953C20.7768 10.0725 20.6074 10.028 20.5169 9.35814C20.4484 8.85114 20.533 8.14171 20.3183 7.80914C20.2407 7.60833 20.1841 7.41439 19.9951 7.75789C19.9443 7.89277 19.7264 8.09746 19.8845 8.51846C20.0138 8.78533 20.0664 9.21971 20.0078 9.70308C19.9181 9.84039 19.8982 9.88689 19.7807 10.0243C19.6157 10.2021 19.4366 10.1567 19.2995 10.0903C19.1713 10.0037 19.071 9.95896 19.0125 9.68396C19.0231 9.24564 19.0474 8.52808 18.9675 8.37589C18.8496 8.14014 18.6553 8.22539 18.5722 8.29664C18.1733 8.66221 17.9762 9.27902 17.8557 9.77021C17.7451 10.1281 17.6273 10.0256 17.5445 9.88114C17.3431 9.69189 17.3293 8.21177 17.0861 8.45514V8.45502Z" fill="white"/>
<path fill-rule="evenodd" clip-rule="evenodd" d="M18.2591 10.8812C18.436 10.7556 18.3533 10.6678 18.6179 10.933C18.9492 11.5006 19.1622 12.2358 19.1941 12.8871C19.1801 13.0476 19.293 13.1491 19.3447 13.1143C19.3753 12.7375 20.2897 12.2125 21.128 12.1357C21.2562 12.1078 21.1939 11.8615 21.2148 11.736C21.1645 11.2695 21.4763 10.8448 21.9134 10.811C22.5082 10.8991 22.7062 11.2173 22.7162 11.7031C22.652 12.6358 21.6826 12.7939 21.1379 12.8683C21.0543 12.9 21.0195 12.9386 21.1379 12.9843L23.4201 12.9946L23.5365 13.062C23.5505 13.1166 23.5033 13.0711 23.4132 13.2198C23.3231 13.3685 23.1902 13.7113 23.1834 13.9403C22.5034 14.1594 21.8001 14.2554 21.0853 14.342C20.837 14.4679 20.7139 14.6356 20.7649 14.8243C20.8484 15.0337 21.3985 15.2428 21.3985 15.2528C21.503 15.3184 21.6266 15.4716 21.3689 15.7856C20.2557 15.7365 19.393 15.2617 19.0944 14.5916C19.0044 14.5216 18.9075 14.5912 18.8454 14.6818C18.4108 15.2433 17.9831 15.7489 17.2421 16.0173C16.8002 16.128 16.3479 15.9494 16.1342 15.6594C15.9912 15.4943 15.9966 15.3121 15.9441 15.2726C15.7053 15.3785 13.6501 16.2536 13.9106 15.846C14.4107 15.3094 15.2767 14.9153 16.0415 14.3858C16.0967 14.2083 16.197 13.6081 16.499 13.4126C16.5165 13.4141 16.4512 13.7651 16.4578 13.9131C16.4612 14.0346 16.4488 14.0823 16.4754 14.051C16.527 14.018 17.455 13.2873 17.5267 13.0632C17.6171 12.9347 17.5538 12.6093 17.5538 12.5994C17.3798 12.1499 17.1357 12.1117 17.0452 11.8884C16.9637 11.5917 17.0006 11.2531 17.1698 11.1587C17.3201 11.022 17.498 11.0389 17.6621 11.1883C17.8496 11.3565 18.016 11.6853 18.0642 11.9303C18.032 12.0271 17.8189 11.8659 17.745 11.914C17.8759 12.0498 17.9369 12.2064 17.9842 12.398C18.105 12.9111 18.0682 13.1105 17.9465 13.4423C17.5345 14.3104 17.008 14.5695 16.5473 14.8911C16.535 14.8955 16.5269 15.1114 16.7001 15.2281C16.7598 15.291 17.0001 15.3233 17.2827 15.2325C17.8287 14.9341 18.3955 14.3845 18.6769 13.7721C18.7586 13.3089 18.6453 12.8177 18.5251 12.3893C18.344 11.9707 18.1308 11.373 18.1308 11.3631C18.1238 11.102 18.145 11.0115 18.2592 10.8812H18.2591ZM12.284 8.46683C12.5467 8.59239 13.0405 8.53895 13.0196 8.11445C13.0196 8.07695 13.0101 7.94995 13.0063 7.91551C12.9527 7.79039 12.8065 7.82133 12.7733 7.95051C12.7629 7.99283 12.7919 8.06176 12.7536 8.08301C12.7317 8.1052 12.6477 8.09214 12.6512 7.97489C12.6512 7.93751 12.6238 7.89739 12.6072 7.87364C12.5906 7.86276 12.5801 7.85976 12.55 7.85976C12.5133 7.8612 12.514 7.87076 12.4939 7.90164C12.4853 7.93301 12.4736 7.9637 12.4736 7.99933C12.469 8.04108 12.4533 8.05595 12.4227 8.06214C12.3884 8.06214 12.3962 8.06589 12.3684 8.0482C12.352 8.03008 12.3314 8.0232 12.3314 7.99239C12.3314 7.96045 12.3241 7.90876 12.3145 7.8877C12.3 7.86845 12.2766 7.85958 12.2503 7.85276C12.1069 7.85326 12.0969 8.01726 12.1052 8.07951C12.0944 8.09126 12.0883 8.38545 12.284 8.46683Z" fill="white"/>
<path fill-rule="evenodd" clip-rule="evenodd" d="M19.9842 11.7332C20.2468 11.8587 20.8721 11.7865 20.7198 11.3808C20.7198 11.3433 20.7103 11.2162 20.7065 11.1819C20.6529 11.0567 20.5067 11.0877 20.4735 11.2169C20.4631 11.2592 20.4921 11.3281 20.4538 11.3494C20.4319 11.3715 20.3479 11.3585 20.3514 11.2412C20.3514 11.2039 20.324 11.1637 20.3074 11.14C20.2908 11.1291 20.2803 11.1261 20.2502 11.1261C20.2135 11.1275 20.2142 11.1371 20.1941 11.168C20.1855 11.1994 20.1738 11.23 20.1738 11.2657C20.1692 11.3074 20.1535 11.3223 20.1229 11.3285C20.0886 11.3285 20.0964 11.3322 20.0686 11.3145C20.0521 11.2964 20.0316 11.2895 20.0316 11.2587C20.0316 11.2268 20.0243 11.1751 20.0147 11.154C20.0002 11.1348 19.9768 11.1259 19.9505 11.1191C19.8071 11.1196 19.7971 11.2836 19.8054 11.3459C19.7946 11.3576 19.7885 11.6518 19.9842 11.7332ZM24.4744 10.3813C24.7371 10.5069 25.2309 10.4534 25.21 10.0289C25.21 9.99142 25.2005 9.86442 25.1968 9.82998C25.1431 9.70485 24.9969 9.73579 24.9637 9.86498C24.9533 9.90729 24.9823 9.97623 24.9441 9.99748C24.9221 10.0197 24.8382 10.0066 24.8416 9.88935C24.8416 9.85198 24.8142 9.81185 24.7976 9.7881C24.781 9.77723 24.7705 9.77423 24.7404 9.77423C24.7038 9.77566 24.7044 9.78523 24.6843 9.8161C24.6758 9.84748 24.664 9.87816 24.664 9.91379C24.6594 9.95554 24.6437 9.97042 24.6131 9.9766C24.5788 9.9766 24.5866 9.98035 24.5588 9.96266C24.5424 9.94454 24.5217 9.93767 24.5217 9.90685C24.5217 9.87492 24.5146 9.82323 24.5049 9.80217C24.4904 9.78291 24.467 9.77404 24.4407 9.76723C24.2973 9.76773 24.2873 9.93173 24.2956 9.99398C24.2848 10.0057 24.2788 10.2999 24.4744 10.3813ZM26.7999 13.7769C26.3422 14.294 26.544 15.1491 26.6474 15.3334C26.7983 15.636 26.9199 15.83 27.2135 15.9797C27.4811 16.177 27.6895 16.0537 27.8044 15.9155C28.0736 15.636 28.0768 14.9222 28.2031 14.7807C28.2918 14.5209 28.515 14.5653 28.6233 14.6804C28.7282 14.8317 28.8519 14.9292 29.0062 15.0115C29.2572 15.2335 29.5571 15.274 29.8525 15.0718C30.0543 14.9583 30.1855 14.8117 30.3037 14.5206C30.435 14.1687 30.3618 12.5426 30.3356 11.5789C30.3255 11.5032 30.0746 10.2535 30.0746 10.2396C30.0746 10.2256 30.0414 9.60179 30.0139 9.45317C30.009 9.39285 29.9941 9.37554 30.0572 9.38317C30.1241 9.4396 30.1332 9.44316 30.175 9.46173C30.2425 9.4741 30.3029 9.35891 30.2622 9.25298L29.6356 8.09467C29.5853 8.04504 29.5203 7.99054 29.4406 8.10867C29.3644 8.1756 29.2832 8.29679 29.2857 8.4526C29.3042 8.7271 29.3524 9.00635 29.3709 9.28092L29.6216 10.6904C29.7006 11.6952 29.7203 12.5175 29.7992 13.5222C29.7882 13.9477 29.6562 14.3186 29.5324 14.3721C29.5324 14.3721 29.3441 14.4815 29.2178 14.3607C29.1259 14.3237 28.7583 13.7466 28.7583 13.7466C28.5703 13.5739 28.4464 13.6233 28.3127 13.7466C27.9438 14.1035 27.7769 14.7712 27.5263 15.2318C27.4617 15.3346 27.279 15.4225 27.0767 15.2243C26.5627 14.5207 26.8639 13.5195 26.7999 13.7769ZM24.5923 7.91692C24.8276 8.01567 24.9936 8.49335 24.9394 8.7266C24.8926 9.01517 24.7678 9.32679 24.6781 9.28623C24.5805 9.24998 24.7445 8.99935 24.6508 8.73648C24.5987 8.56535 24.2776 8.25267 24.3114 8.16048C24.2451 7.96735 24.4479 7.88285 24.5923 7.91692Z" fill="white"/>
<path fill-rule="evenodd" clip-rule="evenodd" d="M27.5577 14.0601C27.6072 13.4864 27.5237 13.1366 27.5088 12.7994C27.494 12.4622 27.1283 9.88943 27.0541 9.6343C26.9646 9.15193 27.4096 9.56961 27.361 9.28905C27.2071 8.9353 26.824 8.4203 26.7037 8.11305C26.6313 7.98143 26.6617 7.8643 26.4997 8.07843C26.3494 8.57068 26.2973 8.97305 26.3547 9.27874C26.7405 11.2969 27.1363 12.975 27.0735 14.8962C27.2564 14.8974 27.4674 14.4765 27.5577 14.0601ZM31.5783 8.73005C31.7929 8.83693 31.9185 9.43561 31.8948 9.60668C31.8522 9.91911 31.7383 10.2565 31.6566 10.2126C31.5677 10.1733 31.6744 9.74924 31.6317 9.61736C31.5843 9.43211 31.2915 9.09361 31.3223 8.9938C31.2618 8.78474 31.4468 8.69324 31.5783 8.73005ZM15.6337 12.9751C15.8389 13.0536 15.9592 13.4935 15.9365 13.6192C15.8956 13.8487 15.7867 14.0967 15.7085 14.0644C15.6235 14.0356 15.7256 13.7239 15.6848 13.6271C15.6674 13.3921 15.3826 13.2704 15.3886 13.1689C15.3354 12.9822 15.5077 12.9479 15.6337 12.9751Z" fill="white"/>
<path fill-rule="evenodd" clip-rule="evenodd" d="M20.5923 13.6356C20.8572 13.6525 20.9896 13.8608 20.7414 13.9481C20.4967 14.0321 20.2615 14.0977 20.2604 14.4521C20.351 14.946 20.1363 14.7765 20.0082 14.7095C19.8573 14.6009 19.434 14.3395 19.3736 13.7751C19.3645 13.6404 19.4693 13.527 19.638 13.5278C19.8921 13.597 20.2671 13.6021 20.5922 13.6356H20.5923Z" fill="#1B9D00"/>
<path fill-rule="evenodd" clip-rule="evenodd" d="M10.1486 7.77442C10.4514 7.86592 10.4693 8.31192 10.447 8.4423C10.4066 8.6803 10.2994 8.9373 10.2224 8.9038C10.1385 8.87392 10.219 8.55086 10.1788 8.45036C10.1339 8.30923 9.8781 8.05136 9.9071 7.97536C9.85016 7.81605 10.0245 7.7463 10.1486 7.77442ZM16.1282 9.87692C15.8959 10.0029 15.8058 10.3782 15.9504 10.5968C16.0855 10.7893 16.2989 10.7179 16.3273 10.7179C16.5549 10.7465 16.6899 10.2903 16.6899 10.2903C16.6899 10.2903 16.6971 10.162 16.4268 10.4044C16.3131 10.4258 16.2989 10.383 16.2704 10.3188C16.2467 10.2 16.2515 10.0813 16.306 9.96248C16.3463 9.84848 16.2585 9.79855 16.1282 9.87692ZM17.8706 7.60192C17.7539 7.68036 17.5215 7.92161 17.5144 8.19961C17.5074 8.35642 17.4782 8.35592 17.5806 8.45573C17.6547 8.56273 17.7293 8.55311 17.8787 8.47467C17.9645 8.4113 17.9935 8.36923 18.0225 8.26298C18.058 8.08486 17.8345 8.34748 17.8061 8.14923C17.7563 7.96511 17.8999 7.88973 18.035 7.71161C18.0394 7.58955 18.0368 7.50311 17.8706 7.60192ZM19.2744 7.85192C19.2241 7.9633 19.1638 8.54523 19.1739 8.54523C19.1337 8.71861 19.3549 8.7928 19.4555 8.56992C19.6063 8.16136 19.6063 7.98805 19.6164 7.81467C19.5694 7.55067 19.3918 7.55892 19.2744 7.85192ZM28.1252 12.3657C28.1553 12.3354 29.3723 11.4686 29.3723 11.4686C29.4964 11.4249 29.4695 11.9155 29.4125 11.9121C29.436 12.0095 28.2123 12.8427 28.1251 12.8092C28.0648 12.8529 28.0044 12.4732 28.1251 12.3657H28.1252ZM29.2346 12.3582C29.4492 12.465 29.5346 13.094 29.5109 13.265C29.5185 13.5977 29.3042 13.8644 29.2223 13.8205C29.1334 13.7813 29.2301 13.4076 29.1874 13.2757C29.14 13.0905 28.9578 12.7419 28.9886 12.642C28.9282 12.433 29.103 12.3214 29.2346 12.3582ZM21.996 15.0669C22.0806 14.9429 22.3421 14.7645 22.3481 14.7645C22.4687 14.704 22.5865 14.8119 22.5794 14.8048C22.5995 14.9258 22.503 15.0384 22.5333 15.1997C22.5596 15.2647 22.5789 15.3369 22.6978 15.3094C22.8911 15.157 23.0701 15.1472 23.2633 15.1375C23.4114 15.1464 23.4172 15.3977 23.3236 15.3995C22.9668 15.4772 22.8069 15.573 22.5522 15.6704C22.4314 15.741 22.3279 15.6515 22.3279 15.6414C22.3279 15.6314 22.2573 15.5728 22.3066 15.4125C22.3153 15.284 22.2637 15.2136 22.1569 15.2282C22.0765 15.2718 22.0056 15.3007 21.9654 15.208C21.9496 15.1395 21.9444 15.1062 21.996 15.0669ZM30.515 15.4057C30.5671 15.4722 30.6008 15.5337 30.5108 15.643C30.4254 15.7214 30.3653 15.7645 30.28 15.8429C30.2397 15.9118 30.2139 16.0163 30.3372 16.0496C30.5648 16.1137 31.091 15.7716 31.091 15.7645C31.1764 15.7004 31.148 15.5792 31.1408 15.5792C31.091 15.5222 30.9789 15.556 30.9035 15.5468C30.8676 15.5468 30.7498 15.5289 30.8058 15.4244C30.8526 15.3594 30.8694 15.3196 30.9011 15.2395C30.9367 15.1611 30.9061 15.1089 30.7781 15.066C30.6477 15.0423 30.5956 15.0542 30.451 15.066C30.3728 15.0827 30.3461 15.1177 30.3319 15.2127C30.3375 15.3569 30.4249 15.3487 30.515 15.4057Z" fill="white"/>
<path fill-rule="evenodd" clip-rule="evenodd" d="M22.0427 11.8589C22.0093 11.9167 21.8965 11.9139 21.7908 11.8527C21.685 11.7914 21.6262 11.6947 21.6596 11.6369C21.693 11.579 21.8058 11.5819 21.9116 11.6432C22.0173 11.7046 22.0761 11.8011 22.0427 11.8589ZM16.4878 8.5093C16.4246 8.5248 16.3419 8.4683 16.3032 8.38312C16.2645 8.29793 16.2844 8.2163 16.3476 8.2008C16.4108 8.1853 16.4935 8.24174 16.5322 8.32693C16.5709 8.41212 16.551 8.4938 16.4878 8.5093Z" fill="#259F00"/>
<path fill-rule="evenodd" clip-rule="evenodd" d="M27.4759 23.4357C28.0591 23.4642 28.607 23.4423 29.1902 23.4709C29.2958 23.5609 29.2203 23.7818 29.1499 23.766C28.9603 23.7612 28.8511 23.7565 28.6614 23.7517C28.6549 23.5655 28.1809 23.596 28.1945 23.7576C27.9385 23.7885 27.7076 23.7487 27.4516 23.7392C27.3759 23.6448 27.3856 23.4747 27.4759 23.4357H27.4759Z" fill="#209000"/>
</g>
</g>
<defs>
<clipPath id="clip0_650_234">
<rect width="42.5739" height="32" fill="white"/>
</clipPath>
</defs>
</svg>
