<svg width="47" height="32" viewBox="0 0 47 32" fill="none" xmlns="http://www.w3.org/2000/svg">
<g clip-path="url(#clip0_171_852)">
<rect width="47" height="32" fill="#D52B1E"/>
<path d="M10.6667 0H36.2667V32H10.6667V0Z" fill="#FAFAFA"/>
<path d="M24.1803 22.4591C26.1212 22.6859 27.8611 22.8899 29.8003 23.1134L29.3062 21.4784C29.2698 21.3378 29.2748 21.1895 29.3206 21.0516C29.3663 20.9137 29.4508 20.7922 29.5638 20.7017L35.2 16.0775L34.0336 15.5243C33.52 15.3399 33.6609 15.0478 33.8472 14.3462L34.7075 11.1872L31.4333 11.8839C31.1142 11.9329 30.902 11.7289 30.8534 11.5331L30.4305 10.0466L27.8417 12.9739C27.4739 13.4439 26.7287 13.4439 26.9603 12.3604L28.0669 6.43075L26.5812 7.20581C26.1649 7.44078 25.7485 7.47994 25.5169 7.06059L23.4675 3.19995L21.4181 7.06059C21.1848 7.47994 20.7685 7.44078 20.3521 7.20581L18.8681 6.43075L19.9746 12.3604C20.2079 13.4439 19.4611 13.4439 19.0933 12.9739L16.5044 10.0483L16.0832 11.5348C16.0346 11.7306 15.8208 11.9345 15.5016 11.8856L12.2275 11.1888L13.0877 14.3478C13.2708 15.0495 13.4133 15.3416 12.8998 15.5259L11.7333 16.0791L17.3695 20.7034C17.5931 20.878 17.7065 21.1929 17.6255 21.4801L17.1314 23.115L22.753 22.4607C22.9248 22.4607 23.0382 22.557 23.0365 22.7561L22.6898 28.7999H24.2386L23.8936 22.7561C23.8968 22.5554 24.0086 22.4591 24.1803 22.4591Z" fill="#D52B1E"/>
</g>
<defs>
<clipPath id="clip0_171_852">
<rect width="46.9333" height="32" fill="white"/>
</clipPath>
</defs>
</svg>
