<svg width="46" height="32" viewBox="0 0 46 32" fill="none" xmlns="http://www.w3.org/2000/svg">
<g clip-path="url(#clip0_265_886)">
<rect width="46" height="32" fill="white"/>
<rect x="0.06" y="0.06" width="45.88" height="31.88" fill="#CC0001" stroke="#CCCCCC" stroke-width="0.12"/>
<path d="M0.0498047 25.2378H45.9065V27.5389H0.0498047V25.2378Z" fill="white"/>
<path d="M0 30H45.8567V32.3011H0V30Z" fill="white"/>
<path d="M0.0498047 20.6355H45.9065V22.9366H0.0498047V20.6355Z" fill="white"/>
<path d="M0 16H46V18H0V16Z" fill="white"/>
<path d="M0.0498047 11.4226H45.9065V13.7238H0.0498047V11.4226Z" fill="white"/>
<path d="M0.0498047 6.82031H45.9065V9.12145H0.0498047V6.82031Z" fill="white"/>
<path d="M0.0747268 2.21802H45.8816C45.8982 2.33432 45.9065 2.45062 45.9065 2.56693V4.51916H0.0498047V2.56693C0.0498047 2.45062 0.0581121 2.33432 0.0747268 2.21802Z" fill="white"/>
<rect width="29" height="18" fill="#010066"/>
<path d="M11.4725 2.21802C7.65109 2.21802 4.54413 5.30836 4.54413 9.12144C4.54413 12.9345 7.65109 16.0249 11.4725 16.0249C12.8515 16.0249 14.1391 15.6178 15.2191 14.9283C14.5877 15.1443 13.9148 15.2606 13.2087 15.2606C9.81931 15.2606 7.06126 12.5192 7.06126 9.13806C7.06126 5.75696 9.811 3.01553 13.2087 3.01553C13.9564 3.01553 14.6791 3.14844 15.3437 3.39766C14.2388 2.65 12.9097 2.21802 11.4725 2.21802Z" fill="#FFCC00"/>
<path d="M22.9616 12.7186L20.0457 11.1984L20.9097 14.3136L18.9574 11.7051L18.351 14.8785L17.7446 11.7051L15.7923 14.3053L16.6646 11.19L13.7404 12.702L15.9086 10.2679L12.6023 10.3925L15.6428 9.12151L12.6023 7.83387L15.9169 7.96679L13.7487 5.52442L16.6646 7.05297L15.8089 3.93771L17.7529 6.53792L18.3676 3.3645L18.9657 6.54623L20.9263 3.93771L20.054 7.05297L22.9782 5.54103L20.8017 7.97509L24.108 7.85048L21.0675 9.12982L24.108 10.4092L20.8017 10.2762L22.9616 12.7186Z" fill="#FFCC00"/>
<rect x="0.06" y="0.06" width="45.88" height="31.88" stroke="#CCCCCC" stroke-width="0.12"/>
</g>
<defs>
<clipPath id="clip0_265_886">
<rect width="45.9564" height="32" fill="white"/>
</clipPath>
</defs>
</svg>
