<svg width="20" height="21" viewBox="0 0 20 21" fill="none" xmlns="http://www.w3.org/2000/svg">
<g clip-path="url(#clip0_265_925)">
<path d="M15.3125 0.5H4.6875C2.09867 0.5 0 2.59867 0 5.1875V15.8125C0 18.4013 2.09867 20.5 4.6875 20.5H15.3125C17.9013 20.5 20 18.4013 20 15.8125V5.1875C20 2.59867 17.9013 0.5 15.3125 0.5Z" fill="url(#paint0_radial_265_925)"/>
<path d="M15.3125 0.5H4.6875C2.09867 0.5 0 2.59867 0 5.1875V15.8125C0 18.4013 2.09867 20.5 4.6875 20.5H15.3125C17.9013 20.5 20 18.4013 20 15.8125V5.1875C20 2.59867 17.9013 0.5 15.3125 0.5Z" fill="url(#paint1_radial_265_925)"/>
<path d="M10.0007 2.6875C7.87898 2.6875 7.61266 2.6968 6.77938 2.73469C5.94766 2.77281 5.37992 2.90445 4.8832 3.09766C4.3693 3.29719 3.93344 3.56414 3.49922 3.99852C3.06461 4.43281 2.79766 4.86867 2.5975 5.38234C2.40375 5.87922 2.27195 6.44719 2.23453 7.27852C2.19727 8.11187 2.1875 8.37828 2.1875 10.5001C2.1875 12.6219 2.19688 12.8873 2.23469 13.7206C2.27297 14.5523 2.40461 15.1201 2.59766 15.6168C2.79734 16.1307 3.0643 16.5666 3.49867 17.0008C3.93281 17.4354 4.36867 17.703 4.88219 17.9025C5.3793 18.0957 5.94711 18.2273 6.77867 18.2655C7.61203 18.3034 7.87813 18.3127 9.99977 18.3127C12.1217 18.3127 12.3872 18.3034 13.2205 18.2655C14.0522 18.2273 14.6205 18.0957 15.1177 17.9025C15.6313 17.703 16.0666 17.4354 16.5006 17.0008C16.9352 16.5666 17.2021 16.1307 17.4023 15.617C17.5944 15.1201 17.7262 14.5522 17.7653 13.7208C17.8027 12.8875 17.8125 12.6219 17.8125 10.5001C17.8125 8.37828 17.8027 8.11203 17.7653 7.27867C17.7262 6.44695 17.5944 5.8793 17.4023 5.38258C17.2021 4.86867 16.9352 4.43281 16.5006 3.99852C16.0661 3.56398 15.6315 3.29703 15.1172 3.09773C14.6191 2.90445 14.0511 2.77273 13.2194 2.73469C12.386 2.6968 12.1207 2.6875 9.99828 2.6875H10.0007ZM9.29984 4.09539C9.50789 4.09508 9.74 4.09539 10.0007 4.09539C12.0867 4.09539 12.3339 4.10289 13.1577 4.14031C13.9194 4.17516 14.3328 4.30242 14.6082 4.40938C14.9728 4.55094 15.2327 4.72023 15.506 4.99375C15.7795 5.26719 15.9487 5.52758 16.0906 5.89219C16.1976 6.16719 16.325 6.58063 16.3597 7.34234C16.3971 8.16594 16.4052 8.41328 16.4052 10.4983C16.4052 12.5833 16.3971 12.8307 16.3597 13.6542C16.3248 14.4159 16.1976 14.8294 16.0906 15.1045C15.9491 15.4691 15.7795 15.7287 15.506 16.002C15.2326 16.2754 14.973 16.4446 14.6082 16.5863C14.3331 16.6937 13.9194 16.8206 13.1577 16.8555C12.3341 16.8929 12.0867 16.901 10.0007 16.901C7.91461 16.901 7.66734 16.8929 6.84383 16.8555C6.08211 16.8203 5.66867 16.693 5.39305 16.5861C5.02852 16.4445 4.76805 16.2752 4.49461 16.0018C4.22117 15.7284 4.05195 15.4686 3.91 15.1038C3.80305 14.8288 3.67563 14.4153 3.64094 13.6536C3.60352 12.83 3.59602 12.5827 3.59602 10.4963C3.59602 8.41 3.60352 8.16398 3.64094 7.34039C3.67578 6.57867 3.80305 6.16523 3.91 5.88984C4.05164 5.52523 4.22117 5.26484 4.49469 4.99141C4.7682 4.71797 5.02852 4.54867 5.39312 4.4068C5.66852 4.29937 6.08211 4.17242 6.84383 4.13742C7.56453 4.10484 7.84383 4.09508 9.29984 4.09344V4.09539ZM14.171 5.39258C13.6534 5.39258 13.2335 5.81211 13.2335 6.32977C13.2335 6.84734 13.6534 7.26727 14.171 7.26727C14.6886 7.26727 15.1085 6.84734 15.1085 6.32977C15.1085 5.81219 14.6886 5.39227 14.171 5.39227V5.39258ZM10.0007 6.48797C7.78508 6.48797 5.98867 8.28438 5.98867 10.5001C5.98867 12.7158 7.78508 14.5113 10.0007 14.5113C12.2164 14.5113 14.0122 12.7158 14.0122 10.5001C14.0122 8.28445 12.2163 6.48797 10.0005 6.48797H10.0007ZM10.0007 7.89586C11.4389 7.89586 12.6049 9.06172 12.6049 10.5001C12.6049 11.9383 11.4389 13.1043 10.0007 13.1043C8.5625 13.1043 7.39656 11.9383 7.39656 10.5001C7.39656 9.06172 8.56242 7.89586 10.0007 7.89586Z" fill="white"/>
</g>
<defs>
<radialGradient id="paint0_radial_265_925" cx="0" cy="0" r="1" gradientUnits="userSpaceOnUse" gradientTransform="translate(5.3125 22.0404) rotate(-90) scale(19.8215 18.4355)">
<stop stop-color="#FFDD55"/>
<stop offset="0.1" stop-color="#FFDD55"/>
<stop offset="0.5" stop-color="#FF543E"/>
<stop offset="1" stop-color="#C837AB"/>
</radialGradient>
<radialGradient id="paint1_radial_265_925" cx="0" cy="0" r="1" gradientUnits="userSpaceOnUse" gradientTransform="translate(-3.35008 1.9407) rotate(78.681) scale(8.86031 36.5225)">
<stop stop-color="#3771C8"/>
<stop offset="0.128" stop-color="#3771C8"/>
<stop offset="1" stop-color="#6600FF" stop-opacity="0"/>
</radialGradient>
<clipPath id="clip0_265_925">
<rect width="20" height="20" fill="white" transform="translate(0 0.5)"/>
</clipPath>
</defs>
</svg>
