<svg width="20" height="21" viewBox="0 0 20 21" fill="none" xmlns="http://www.w3.org/2000/svg">
<g clip-path="url(#clip0_265_930)">
<path d="M15.3125 0.5H4.6875C2.09867 0.5 0 2.59867 0 5.1875V15.8125C0 18.4013 2.09867 20.5 4.6875 20.5H15.3125C17.9013 20.5 20 18.4013 20 15.8125V5.1875C20 2.59867 17.9013 0.5 15.3125 0.5Z" fill="white"/>
<path d="M15.3125 0.5H4.6875C2.09867 0.5 0 2.59867 0 5.1875V15.8125C0 18.4013 2.09867 20.5 4.6875 20.5H15.3125C17.9013 20.5 20 18.4013 20 15.8125V5.1875C20 2.59867 17.9013 0.5 15.3125 0.5Z" fill="#0A66C2"/>
<path d="M14.4309 17.5066H16.7176C16.8004 17.5066 16.8799 17.4737 16.9385 17.4151C16.9971 17.3566 17.0301 17.2771 17.0301 17.1942L17.0312 12.3628C17.0312 9.83758 16.4871 7.89656 13.5361 7.89656C12.4143 7.85484 11.3564 8.43312 10.7855 9.39875C10.7828 9.40344 10.7785 9.40709 10.7734 9.40914C10.7684 9.41119 10.7628 9.41153 10.7575 9.4101C10.7523 9.40867 10.7476 9.40556 10.7443 9.40124C10.7409 9.39692 10.7391 9.39163 10.7391 9.38617V8.44219C10.7391 8.35931 10.7061 8.27982 10.6475 8.22122C10.5889 8.16261 10.5094 8.12969 10.4266 8.12969H8.25648C8.1736 8.12969 8.09412 8.16261 8.03551 8.22122C7.97691 8.27982 7.94398 8.35931 7.94398 8.44219V17.1937C7.94398 17.2766 7.97691 17.3561 8.03551 17.4147C8.09412 17.4733 8.1736 17.5062 8.25648 17.5062H10.543C10.6259 17.5062 10.7054 17.4733 10.764 17.4147C10.8226 17.3561 10.8555 17.2766 10.8555 17.1937V12.8677C10.8555 11.6445 11.0876 10.4599 12.6041 10.4599C14.099 10.4599 14.1184 11.8596 14.1184 12.947V17.1941C14.1184 17.277 14.1513 17.3565 14.2099 17.4151C14.2685 17.4737 14.348 17.5066 14.4309 17.5066ZM2.96875 5.15844C2.96875 6.08531 3.7318 6.84797 4.65875 6.84797C5.58547 6.84789 6.34805 6.08477 6.34805 5.15805C6.34789 4.23133 5.58523 3.46875 4.65844 3.46875C3.73141 3.46875 2.96875 4.23156 2.96875 5.15844ZM3.51242 17.5066H5.80203C5.88491 17.5066 5.9644 17.4737 6.023 17.4151C6.08161 17.3565 6.11453 17.277 6.11453 17.1941V8.44219C6.11453 8.35931 6.08161 8.27982 6.023 8.22122C5.9644 8.16261 5.88491 8.12969 5.80203 8.12969H3.51242C3.42954 8.12969 3.35006 8.16261 3.29145 8.22122C3.23285 8.27982 3.19992 8.35931 3.19992 8.44219V17.1941C3.19992 17.277 3.23285 17.3565 3.29145 17.4151C3.35006 17.4737 3.42954 17.5066 3.51242 17.5066Z" fill="white"/>
</g>
<defs>
<clipPath id="clip0_265_930">
<rect width="20" height="20" fill="white" transform="translate(0 0.5)"/>
</clipPath>
</defs>
</svg>
