<svg width="40" height="41" viewBox="0 0 40 41" fill="none" xmlns="http://www.w3.org/2000/svg">
<rect x="8" y="10" width="25" height="22" fill="white"/>
<path d="M20 0.699951C17.2396 0.699951 14.6484 1.22078 12.2266 2.26245C9.80469 3.33016 7.6888 4.76896 5.87891 6.57886C4.06901 8.38875 2.63021 10.5046 1.5625 12.9265C0.520833 15.3484 0 17.9395 0 20.7C0 23.4604 0.520833 26.0515 1.5625 28.4734C2.63021 30.8953 4.06901 33.0111 5.87891 34.821C7.6888 36.6309 9.80469 38.0697 12.2266 39.1375C14.6484 40.1791 17.2396 40.7 20 40.7C22.7604 40.7 25.3516 40.1791 27.7734 39.1375C30.1953 38.0697 32.3112 36.6309 34.1211 34.821C35.931 33.0111 37.3698 30.8953 38.4375 28.4734C39.4792 26.0515 40 23.4604 40 20.7C40 17.9395 39.4792 15.3484 38.4375 12.9265C37.3698 10.5046 35.931 8.38875 34.1211 6.57886C32.3112 4.76896 30.1953 3.33016 27.7734 2.26245C25.3516 1.22078 22.7604 0.699951 20 0.699951ZM30.1172 16.4421L19.2969 27.3015C19.1406 27.4578 18.9583 27.575 18.75 27.6531C18.5417 27.7312 18.3333 27.7703 18.125 27.7703C17.9167 27.7703 17.7083 27.7312 17.5 27.6531C17.2917 27.575 17.1094 27.4578 16.9531 27.3015L11.5234 21.8718C11.2109 21.5593 11.0547 21.1687 11.0547 20.7C11.0547 20.2312 11.2109 19.8406 11.5234 19.5281C11.862 19.1895 12.2591 19.0203 12.7148 19.0203C13.1706 19.0203 13.5547 19.1895 13.8672 19.5281L18.125 23.7468L27.7734 14.0984C28.112 13.7859 28.5091 13.6296 28.9648 13.6296C29.4206 13.6296 29.8047 13.7859 30.1172 14.0984C30.4557 14.4369 30.625 14.8341 30.625 15.2898C30.625 15.7455 30.4557 16.1296 30.1172 16.4421Z" fill="#4BAF47"/>
</svg>
