<svg width="24" height="24" viewBox="0 0 24 24" fill="none" xmlns="http://www.w3.org/2000/svg">
<rect x="7" y="7" width="11" height="11" fill="#F68121"/>
<path fill-rule="evenodd" clip-rule="evenodd" d="M12 22C17.523 22 22 17.523 22 12C22 6.477 17.523 2 12 2C6.477 2 2 6.477 2 12C2 17.523 6.477 22 12 22ZM15.232 13.361L16.776 14.909C17.083 15.218 17.073 15.729 16.756 16.049L16.314 16.481L16.304 16.472C15.9336 16.7563 15.4936 16.9359 15.03 16.992C14.93 17.003 12.595 17.222 9.697 14.318C7.6 12.217 6.827 10.668 7.032 8.974C7.055 8.762 7.107 8.552 7.192 8.331C7.282 8.099 7.404 7.883 7.55 7.697L7.538 7.685L7.973 7.246C8.292 6.926 8.802 6.917 9.108 7.225L10.653 8.773C10.96 9.081 10.951 9.591 10.633 9.911L10.375 10.168L9.853 10.691C9.88141 10.7408 9.90941 10.7908 9.937 10.841L9.938 10.844C10.211 11.337 10.585 12.011 11.293 12.72C12.001 13.43 12.673 13.804 13.165 14.077L13.318 14.163L14.096 13.383C14.415 13.063 14.924 13.054 15.232 13.362V13.361Z" fill="white"/>
</svg>
